<svg xmlns="http://www.w3.org/2000/svg" xmlns:xlink="http://www.w3.org/1999/xlink" width="24" height="24" viewBox="0 0 24 24">
    <defs>
        <path id="1n17eg4nga" d="M0 0H24V24H0z"/>
    </defs>
    <g fill="none" fill-rule="evenodd">
        <g>
            <g transform="translate(-168 -677) translate(168 677)">
                <mask id="l3tlkf093b" fill="#fff">
                    <use xlink:href="#1n17eg4nga"/>
                </mask>
                <path fill="#FFF" d="M21.5 6.5v11L12 23l-9.5-5.5v-11L12 1l9.5 5.5zm-17 1.153v8.694l7.5 4.342 7.5-4.342V7.653L12 3.311 4.5 7.653zm4.672 7.175C8.422 14.078 8 13.061 8 12c0-1.06.421-2.078 1.172-2.828C9.922 8.422 10.939 8 12 8c1.06 0 2.078.421 2.828 1.172C15.578 9.922 16 10.939 16 12c0 1.06-.421 2.078-1.172 2.828C14.078 15.578 13.061 16 12 16c-1.06 0-2.078-.421-2.828-1.172zm4.242-1.414C13.79 13.04 14 12.53 14 12c0-.53-.21-1.04-.586-1.414C13.04 10.21 12.53 10 12 10c-.53 0-1.04.21-1.414.586C10.21 10.96 10 11.47 10 12c0 .53.21 1.04.586 1.414.375.375.884.586 1.414.586.53 0 1.04-.21 1.414-.586z" mask="url(#l3tlkf093b)"/>
            </g>
        </g>
    </g>
</svg>
